<svg width="30" height="30" viewBox="0 0 30 30" fill="none" xmlns="http://www.w3.org/2000/svg">
<path d="M23.1672 6.66667C21.029 4.57041 18.1233 3.33333 15 3.33333C8.55668 3.33333 3.33333 8.55668 3.33333 15C3.33333 21.4433 8.55668 26.6667 15 26.6667C21.4433 26.6667 26.6667 21.4433 26.6667 15H30C30 23.2843 23.2843 30 15 30C6.71573 30 0 23.2843 0 15C0 6.71573 6.71573 0 15 0C18.7762 0 22.3065 1.40792 25 3.81745V0H28.3333V8.33333C28.3333 9.25381 27.5871 10 26.6667 10H18.3333V6.66667H23.1672Z" fill="#616161"/>
</svg>
