<svg xmlns="http://www.w3.org/2000/svg" xmlns:xlink="http://www.w3.org/1999/xlink" version="1.1" width="533.724" height="158.532" viewBox="0 0 533.724 158.532">
<defs>
<clipPath id="clip_0">
<path transform="matrix(1,0,0,-1,0,158.532)" d="M0 158.532H533.724V0H0Z"/>
</clipPath>
<clipPath id="clip_1">
<path transform="matrix(1,0,0,-1,0,158.532)" d="M263.296 73.4438V73.4438Z"/>
</clipPath>
</defs>
<g>
<g id="layer_1" data-name="Layer 1">
<g clip-path="url(#clip_0)">
<g opacity=".300003">
<g clip-path="url(#clip_1)">
</g>
</g>
<path transform="matrix(1,0,0,-1,233.3886,65.863597)" d="M0 0H-6.403C-7.413 0-8.231-.818-8.231-1.827V-17.394C-8.231-18.916-9.464-20.148-10.986-20.148H-11.117-25.728C-27.218-20.148-28.426-18.94-28.426-17.45V13.16C-28.426 14.238-29.3 15.111-30.377 15.111H-36.551C-37.628 15.111-38.5 14.238-38.5 13.16-38.5 13.16-38.487-16.113-38.466-16.233-38.075-24.022-31.656-30.222-23.772-30.222H-22.573-12.45-11.97C-4.584-30.222 1.428-24.415 1.794-17.119 1.814-17.006 1.827-1.827 1.827-1.827 1.827-.818 1.009 0 0 0" fill="#ec1e46"/>
<path transform="matrix(1,0,0,-1,233.3207,101.1773)" d="M0 0H-6.299C-7.345 0-8.192-.847-8.192-1.893V-8.192C-8.192-9.238-7.345-10.087-6.299-10.087H0C1.046-10.087 1.895-9.238 1.895-8.192V-1.893C1.895-.847 1.046 0 0 0" fill="#ec1e46"/>
<path transform="matrix(1,0,0,-1,187.9889,65.7998)" d="M0 0H-6.398C-7.408 0-8.225-.817-8.225-1.826V-17.38C-8.225-18.901-9.456-20.132-10.977-20.132H-35.943C-35.671-19.16-35.49-18.151-35.438-17.105-35.418-16.992-35.405-1.826-35.405-1.826-35.405-.817-36.222 0-37.23 0H-43.628C-44.638 0-45.455-.817-45.455-1.826V-17.38C-45.455-18.901-46.687-20.132-48.207-20.132H-75.669-75.67L-75.669-25.165-70.636-29.859C-70.42-30.075-70.128-30.198-69.819-30.198H-49.191C-45.364-30.198-41.916-28.629-39.422-26.111L-35.403-29.859C-35.188-30.075-34.896-30.198-34.586-30.198H-11.961C-4.581-30.198 1.427-24.395 1.793-17.105 1.812-16.992 1.825-1.826 1.825-1.826 1.825-.817 1.008 0 0 0" fill="#ec1e46"/>
<path transform="matrix(1,0,0,-1,150.5453,101.030597)" d="M0 0H-16.105C-17.205 0-18.093-.889-18.093-1.988V-8.079C-18.093-9.176-17.205-10.066-16.105-10.066H0C1.098-10.066 1.988-9.176 1.988-8.079V-1.988C1.988-.889 1.098 0 0 0" fill="#ec1e46"/>
<path transform="matrix(1,0,0,-1,112.2901,70.088)" d="M0 0C-.258 7.662-6.536 13.795-14.259 13.795H-16.015L-4.004 25.88C-2.805 27.079-3.654 29.131-5.352 29.131L-13.804 29.137C-14.075 29.137-14.333 29.031-14.526 28.838L-36.335 7.042C-37.538 5.839-36.686 3.785-34.989 3.785L-14.173 3.781C-11.572 3.781-9.466 1.676-9.466-.926V-15.74L-56.704-15.927C-58.21-15.927-59.43-14.708-59.43-13.202V2.286C-59.43 3.285-60.24 4.094-61.238 4.094H-66.732C-67.731 4.094-68.54 3.285-68.54 2.286-68.54 2.286-68.527-12.92-68.508-13.031-68.145-20.251-62.196-25.998-54.887-25.998L-1.825-25.887C-.78-25.887 .069-25.038 .069-23.993Z" fill="#ec1e46"/>
<path transform="matrix(1,0,0,-1,263.7182,65.82)" d="M0 0H-6.129C-7.222 0-8.107-.882-8.107-1.968V-32.319C-8.107-33.959-9.44-35.286-11.087-35.286L-17.133-35.259C-17.711-35.259-18.264-35.487-18.672-35.893L-22.52-39.619C-22.928-40.025-23.157-40.576-23.157-41.15V-43.353C-23.157-44.415-22.292-45.277-21.224-45.277H-12.954C-4.962-45.277 1.545-39.104 1.939-31.25L1.977-1.968C1.977-.882 1.092 0 0 0" fill="#ec1e46"/>
<path transform="matrix(1,0,0,-1,172.7236,55.747797)" d="M0 0H-16.131C-17.236 0-18.129-.888-18.129-1.988V-8.076C-18.129-9.174-17.236-10.063-16.131-10.063H0C1.104-10.063 1.997-9.174 1.997-8.076V-1.988C1.997-.888 1.104 0 0 0" fill="#ec1e46"/>
<path transform="matrix(1,0,0,-1,485.8188,58.604097)" d="M0 0-16.263 16.258C-17.821 17.816-20.409 17.679-21.746 15.928-37.638-4.887-63.984-18.501-93.803-18.505-123.623-18.501-149.968-4.887-165.857 15.928-167.193 17.679-169.785 17.816-171.344 16.258L-187.601 0C-189.815-2.214-190.033-5.768-188.04-8.188-165.667-35.339-131.786-52.651-93.864-52.672H-93.86-93.803-93.743C-55.815-52.651-21.939-35.339 .438-8.188 2.431-5.768 2.213-2.214 0 0" fill="#ec1e46"/>
</g>
</g>
</g>
</svg>
